<?xml version="1.0" encoding="UTF-8" standalone="no"?>
<svg
   width="16"
   height="16"
   version="1.1"
   id="svg1"
   sodipodi:docname="MultiIcon.svg"
   inkscape:version="1.4.2 (f4327f4, 2025-05-13)"
   xmlns:inkscape="http://www.inkscape.org/namespaces/inkscape"
   xmlns:sodipodi="http://sodipodi.sourceforge.net/DTD/sodipodi-0.dtd"
   xmlns="http://www.w3.org/2000/svg"
   xmlns:svg="http://www.w3.org/2000/svg">
  <defs
     id="defs1" />
  <sodipodi:namedview
     id="namedview1"
     pagecolor="#505050"
     bordercolor="#eeeeee"
     borderopacity="1"
     inkscape:showpageshadow="0"
     inkscape:pageopacity="0"
     inkscape:pagecheckerboard="0"
     inkscape:deskcolor="#505050"
     inkscape:zoom="32"
     inkscape:cx="7.15625"
     inkscape:cy="9.984375"
     inkscape:window-width="1920"
     inkscape:window-height="1001"
     inkscape:window-x="-9"
     inkscape:window-y="-9"
     inkscape:window-maximized="1"
     inkscape:current-layer="g4" />
  <text
     xml:space="preserve"
     style="font-size:13.3333px;font-family:Cambria;-inkscape-font-specification:Cambria;fill:#8654ce;stroke-width:5.66929;stroke-linecap:round;stroke-linejoin:round;stroke-opacity:0.2;font-weight:normal;font-style:normal;font-stretch:normal;font-variant:normal"
     x="4.4930115"
     y="10.958069"
     id="text1"><tspan
       sodipodi:role="line"
       id="tspan1" /></text>
  <g
     id="g7" />
  <g
     id="g2"
     transform="matrix(0.08123479,0,0,0.08123435,5.4495842,0.82971638)" />
  <g
     id="g3"
     transform="matrix(0.06160364,0,0,0.06160364,6.8620535,2.2820062)" />
  <g
     id="g4"
     transform="matrix(0.08123479,0,0,0.08123435,5.4495842,0.82971638)"
     style="fill:#8eef97;fill-opacity:1">
    <path
       id="path1"
       style="fill:#8eef97;fill-opacity:1;stroke-width:12.31"
       d="M -48.619369 -2.5200716 C -54.567934 -2.5194603 -59.390037 2.3026688 -59.390616 8.2512339 L -59.390616 168.28206 C -59.390034 174.23062 -54.567932 179.05275 -48.619369 179.05336 L 111.41059 179.05336 C 117.35915 179.05275 122.18126 174.23062 122.18184 168.28206 L 122.18184 8.2512339 C 122.18126 2.3026676 117.35916 -2.519462 111.41059 -2.5200716 L -48.619369 -2.5200716 z M 27.236178 -2.0632529 L 35.555043 -2.0632529 L 35.555043 19.022539 L 100.63934 19.022539 L 100.63934 84.107191 L 121.72502 84.107191 L 121.72502 92.426101 L 100.63934 92.426101 L 100.63934 157.51075 L 35.555043 157.51075 L 35.555043 178.59654 L 27.236178 178.59654 L 27.236178 157.51075 L -37.848121 157.51075 L -37.848121 92.426101 L -58.933799 92.426101 L -58.933799 84.107191 L -37.848121 84.107191 L -37.848121 19.022539 L 27.236178 19.022539 L 27.236178 -2.0632529 z M 75.899134 36.549954 A 18.465046 70.782669 44.999822 0 0 55.126014 45.109295 A 49.239986 49.240253 0 0 1 74.552728 64.536114 A 18.465046 70.782669 44.999822 0 0 81.453058 38.208927 A 18.465046 70.782669 44.999822 0 0 75.899134 36.549954 z M 74.552728 64.536114 A 18.465046 70.782669 44.999822 0 1 44.450939 101.32205 A 18.465046 70.782669 44.999822 0 1 7.6652063 131.424 A 49.239986 49.240253 0 0 0 31.39561 137.5069 A 49.239986 49.240253 0 0 0 80.635597 88.266646 A 49.239986 49.240253 0 0 0 74.552728 64.536114 z M 7.6652063 131.424 A 49.239986 49.240253 0 0 1 -11.761507 111.99718 A 18.465046 70.782669 44.999822 0 0 -18.661837 138.32436 A 18.465046 70.782669 44.999822 0 0 7.6652063 131.424 z M -11.761507 111.99718 A 18.465046 70.782669 44.999822 0 1 18.340282 75.211247 A 18.465046 70.782669 44.999822 0 1 55.126014 45.109295 A 49.239986 49.240253 0 0 0 31.39561 39.026392 A 49.239986 49.240253 0 0 0 -17.844377 88.266646 A 49.239986 49.240253 0 0 0 -11.761507 111.99718 z " />
  </g>
</svg>
